<svg width="141" height="140" viewBox="0 0 141 140" fill="none" xmlns="http://www.w3.org/2000/svg">
<path d="M49.4049 74.8039H46.9412C44.6671 74.8039 42.8235 76.6475 42.8235 78.9216C42.8235 81.1956 44.6671 83.0392 46.9412 83.0392H93.6078C95.8819 83.0392 97.7255 81.1956 97.7255 78.9216C97.7255 76.6475 95.8819 74.8039 93.6078 74.8039H91.1441C89.4828 66.3713 82.8256 59.7117 74.3921 58.0506V64.5098C74.3921 66.7839 72.5485 68.6275 70.2745 68.6275C68.0005 68.6275 66.1569 66.7839 66.1569 64.5098V58.0506C57.7236 59.7117 51.0665 66.3713 49.4049 74.8039Z" fill="#818CEB"/>
<path d="M91.4993 110.304C86.6024 116.672 78.91 120.784 70.2745 120.784C61.639 120.784 53.9467 116.672 49.0497 110.304C41.1257 116.045 35.9608 125.371 35.9608 135.882C35.9608 138.156 37.8044 140 40.0784 140H100.471C102.745 140 104.588 138.156 104.588 135.882C104.588 125.371 99.4233 116.045 91.4993 110.304Z" fill="#818CEB"/>
<path d="M70.2745 112.549C80.5079 112.549 88.8039 104.253 88.8039 94.0196V91.2745H51.7451V94.0196C51.7451 104.253 60.041 112.549 70.2745 112.549Z" fill="#818CEB"/>
<path d="M74.3922 58.0506V56.2745C74.3922 54.0005 72.5485 52.1569 70.2745 52.1569C68.0005 52.1569 66.1569 54.0005 66.1569 56.2745V58.0506C67.4899 57.7882 68.8657 57.6471 70.2745 57.6471C71.6833 57.6471 73.0591 57.7882 74.3922 58.0506Z" fill="#818CEB"/>
<path d="M82.902 30.8823H129.569C131.843 30.8823 133.686 29.0387 133.686 26.7647C133.686 24.4907 131.843 22.6471 129.569 22.6471H127.105C125.443 14.2144 118.786 7.55478 110.353 5.89372V12.3529C110.353 14.627 108.509 16.4706 106.235 16.4706C103.961 16.4706 102.118 14.627 102.118 12.3529V5.89372C93.6844 7.55478 87.0273 14.2144 85.3657 22.6471H82.902C80.6279 22.6471 78.7843 24.4907 78.7843 26.7647C78.7843 29.0387 80.6279 30.8823 82.902 30.8823Z" fill="#818CEB"/>
<path d="M106.235 60.3922C116.469 60.3922 124.765 52.0962 124.765 41.8627V39.1176H87.7059V41.8627C87.7059 52.0962 96.0018 60.3922 106.235 60.3922Z" fill="#818CEB"/>
<path d="M127.788 57.7124C122.911 64.3275 115.066 68.6275 106.235 68.6275C103.106 68.6275 100.101 68.0858 97.3071 67.0943C97.314 67.1102 97.322 67.1256 97.3288 67.1413C102.328 68.7238 105.961 73.4064 105.961 78.9216C105.961 84.5479 102.178 89.3044 97.0238 90.7903C97.0332 90.9506 97.0392 91.1117 97.0392 91.2745V94.0196C97.0392 97.2017 96.4798 100.255 95.4564 103.089C95.7548 103.253 96.0485 103.431 96.3312 103.636C99.7909 106.142 102.78 109.164 105.231 112.549H136.431C138.705 112.549 140.549 110.706 140.549 108.432V82.3532C140.549 72.1922 135.504 63.188 127.788 57.7124Z" fill="#818CEB"/>
<path d="M110.353 5.89373V4.11765C110.353 1.84361 108.509 0 106.235 0C103.961 0 102.118 1.84361 102.118 4.11765V5.89373C103.451 5.63129 104.827 5.4902 106.235 5.4902C107.644 5.4902 109.02 5.63129 110.353 5.89373Z" fill="#818CEB"/>
<path d="M10.9804 30.8823H57.647C59.9211 30.8823 61.7647 29.0387 61.7647 26.7647C61.7647 24.4907 59.9211 22.6471 57.647 22.6471H55.1833C53.5217 14.2144 46.8646 7.55478 38.4314 5.89372V12.3529C38.4314 14.627 36.5878 16.4706 34.3137 16.4706C32.0397 16.4706 30.1961 14.627 30.1961 12.3529V5.89372C21.7628 7.55478 15.1057 14.2144 13.4441 22.6471H10.9804C8.70634 22.6471 6.86273 24.4907 6.86273 26.7647C6.86273 29.0387 8.70634 30.8823 10.9804 30.8823Z" fill="#818CEB"/>
<path d="M52.8431 41.8627V39.1176H15.7843V41.8627C15.7843 52.0962 24.0803 60.3922 34.3137 60.3922C44.5472 60.3922 52.8431 52.0962 52.8431 41.8627Z" fill="#818CEB"/>
<path d="M44.218 103.635C44.5008 103.431 44.7945 103.252 45.0929 103.088C44.0693 100.255 43.5101 97.2015 43.5101 94.0193V91.2742C43.5101 91.1115 43.5161 90.9503 43.5255 90.79C38.3707 89.3044 34.5882 84.5479 34.5882 78.9216C34.5882 73.4064 38.2214 68.7238 43.2199 67.1413C43.2268 67.1253 43.2347 67.11 43.2416 67.0943C40.4479 68.0858 37.4431 68.6275 34.3137 68.6275C25.4827 68.6275 17.6384 64.3275 12.7606 57.7124C5.04467 63.188 0 72.1922 0 82.3529V108.431C0 110.705 1.84361 112.549 4.11765 112.549H35.3187C37.7687 109.163 40.7584 106.142 44.218 103.635Z" fill="#818CEB"/>
<path d="M38.4314 5.89373V4.11765C38.4314 1.84361 36.5878 0 34.3137 0C32.0397 0 30.1961 1.84361 30.1961 4.11765V5.89373C31.5291 5.63129 32.9049 5.4902 34.3137 5.4902C35.7225 5.4902 37.0984 5.63129 38.4314 5.89373Z" fill="#818CEB"/>
</svg>
