<svg width="140" height="140" viewBox="0 0 140 140" fill="none" xmlns="http://www.w3.org/2000/svg">
<path d="M11.2109 140C17.2516 140 22.1484 135.103 22.1484 129.062C22.1484 123.022 17.2516 118.125 11.2109 118.125C5.17032 118.125 0.273438 123.022 0.273438 129.062C0.273438 135.103 5.17032 140 11.2109 140Z" fill="#818CEB"/>
<path d="M70 140C76.0406 140 80.9375 135.103 80.9375 129.062C80.9375 123.022 76.0406 118.125 70 118.125C63.9594 118.125 59.0625 123.022 59.0625 129.062C59.0625 135.103 63.9594 140 70 140Z" fill="#818CEB"/>
<path d="M85.6942 118.125C87.8631 121.228 89.1406 124.998 89.1406 129.062C89.1406 133.127 87.8631 136.897 85.6942 140H113.095C110.926 136.897 109.648 133.127 109.648 129.062C109.648 124.998 110.926 121.228 113.095 118.125H85.6942Z" fill="#818CEB"/>
<path d="M26.9052 118.125C29.0741 121.228 30.3516 124.998 30.3516 129.062C30.3516 133.127 29.0741 136.897 26.9052 140H54.3058C52.1369 136.897 50.8594 133.127 50.8594 129.062C50.8594 124.998 52.1369 121.228 54.3058 118.125H26.9052Z" fill="#818CEB"/>
<path d="M128.789 140C134.83 140 139.727 135.103 139.727 129.062C139.727 123.022 134.83 118.125 128.789 118.125C122.748 118.125 117.852 123.022 117.852 129.062C117.852 135.103 122.748 140 128.789 140Z" fill="#818CEB"/>
<path d="M80.2539 85.3125H59.7461C57.4809 85.3125 55.6445 87.1489 55.6445 89.4141V109.922H84.3555V89.4141C84.3555 87.1489 82.5191 85.3125 80.2539 85.3125Z" fill="#818CEB"/>
<path d="M18.7305 85.3125C16.4653 85.3125 14.6289 87.1489 14.6289 89.4141V109.922H43.3398V89.4141C43.3398 87.1489 41.5034 85.3125 39.2383 85.3125H18.7305Z" fill="#818CEB"/>
<path d="M100.762 85.3125C98.4966 85.3125 96.6602 87.1489 96.6602 89.4141V109.922H125.371V89.4141C125.371 87.1489 123.535 85.3125 121.27 85.3125H100.762Z" fill="#818CEB"/>
<path d="M48.125 76.5625C50.3902 76.5625 52.2266 74.7261 52.2266 72.4609V64.2578C52.2266 62.6172 51.2487 61.1341 49.7407 60.4879L33.0859 53.3501V44.0171C35.537 42.5986 37.1875 39.95 37.1875 36.9141C37.1875 32.3835 33.515 28.7109 28.9844 28.7109C24.4538 28.7109 20.7812 32.3835 20.7812 36.9141C20.7812 39.9498 22.4317 42.5986 24.8828 44.0171V53.3501L8.22801 60.4879C6.72 61.1341 5.74219 62.6172 5.74219 64.2578V72.4609C5.74219 74.7261 7.57859 76.5625 9.84375 76.5625C12.1089 76.5625 13.9453 74.7261 13.9453 72.4609V66.9624L28.9844 60.5172L44.0234 66.9624V72.4609C44.0234 74.7261 45.8598 76.5625 48.125 76.5625Z" fill="#818CEB"/>
<path d="M135.898 0H4.10156C1.83641 0 0 1.83641 0 4.10156C0 6.36672 1.83641 8.20312 4.10156 8.20312H84.0394L72.2006 28.7082C71.4394 30.0264 70.8868 31.4073 70.5234 32.8125H44.8667C45.205 34.1239 45.3904 35.4968 45.3904 36.9141C45.3904 38.3313 45.205 39.7042 44.8667 41.0156H70.5272C71.59 45.1278 74.2366 48.828 78.2056 51.1194C86.0527 55.6497 96.0865 52.9613 100.617 45.1145L121.928 8.20312H135.898C138.164 8.20312 140 6.36672 140 4.10156C140 1.83641 138.164 0 135.898 0ZM86.4062 41.0156C84.1411 41.0156 82.3047 39.1792 82.3047 36.9141C82.3047 34.6489 84.1411 32.8125 86.4062 32.8125C88.6714 32.8125 90.5078 34.6489 90.5078 36.9141C90.5078 39.1792 88.6714 41.0156 86.4062 41.0156Z" fill="#818CEB"/>
</svg>
