<svg width="140" height="140" viewBox="0 0 140 140" fill="none" xmlns="http://www.w3.org/2000/svg">
<path d="M27.3438 90.7812V4.10156C27.3438 1.83641 25.5073 0 23.2422 0H12.3047C5.50894 0 0 5.50894 0 12.3047V92.9884C2.41527 91.5876 5.21582 90.7812 8.20312 90.7812H27.3438Z" fill="#818CEB"/>
<path d="M131.797 140H111.289C109.024 140 107.188 138.164 107.188 135.898V123.594H131.797C136.327 123.594 140 127.266 140 131.797C140 136.327 136.327 140 131.797 140Z" fill="#818CEB"/>
<path d="M107.086 58.7699C106.239 56.3781 104.983 54.1991 103.353 52.2935C102.223 50.9723 102.048 49.0823 102.917 47.5764L105.681 42.7902L98.5767 38.6886L95.8141 43.4735C94.946 44.9769 93.225 45.7696 91.5173 45.4562C88.8932 44.9714 86.6534 44.9714 84.0293 45.4562C82.3214 45.7712 80.6003 44.9771 79.7325 43.4735L76.9699 38.6886L69.8657 42.7902L72.6291 47.5764C73.4984 49.082 73.3242 50.9723 72.1938 52.2932C70.5633 54.1996 69.3071 56.3784 68.4608 58.7696C67.8809 60.4075 66.3318 61.5023 64.5944 61.5023H59.0625V69.7055H64.5944C66.3318 69.7055 67.8811 70.8003 68.4608 72.4382C69.3074 74.8294 70.5633 77.0084 72.1938 78.9148C73.3239 80.2358 73.4984 82.1261 72.6291 83.6316L69.8657 88.4179L76.9699 92.5194L79.7325 87.7346C80.6006 86.2307 82.3222 85.4382 84.0293 85.7519C86.6515 86.2361 88.8951 86.2361 91.5173 85.7519C91.7664 85.7059 92.0161 85.6835 92.2633 85.6835C93.7092 85.6835 95.0729 86.4502 95.8141 87.7346L98.5767 92.5194L105.681 88.4179L102.917 83.6316C102.048 82.1258 102.222 80.2358 103.353 78.9146C104.983 77.0087 106.239 74.83 107.086 72.4379C107.666 70.8003 109.215 69.7055 110.952 69.7055H116.484V61.5023H110.952C109.215 61.5023 107.666 60.4075 107.086 58.7699ZM87.7734 77.9086C80.9886 77.9086 75.4688 72.3887 75.4688 65.6039C75.4688 58.8191 80.9886 53.2992 87.7734 53.2992C94.5582 53.2992 100.078 58.8191 100.078 65.6039C100.078 72.3887 94.5582 77.9086 87.7734 77.9086Z" fill="#818CEB"/>
<path d="M127.695 16.4062H35.5469V90.7812C35.5469 95.3118 31.8743 98.9844 27.3438 98.9844H8.20312C3.67254 98.9844 0 102.657 0 107.188C0 111.718 3.67254 115.391 8.20312 115.391H131.797C134.784 115.391 137.585 116.197 140 117.598V28.7109C140 21.9152 134.491 16.4062 127.695 16.4062ZM124.688 73.8071C124.688 76.0722 122.851 77.9086 120.586 77.9086H113.693C113.033 79.3034 112.264 80.6367 111.391 81.9019L114.836 87.8683C115.38 88.8103 115.527 89.9298 115.246 90.9806C114.964 92.0314 114.277 92.9272 113.335 93.4711L99.1263 101.674C98.4974 102.037 97.7892 102.224 97.0755 102.224C96.72 102.224 96.3635 102.178 96.014 102.084C94.9632 101.802 94.0674 101.115 93.5236 100.173L90.0834 94.2148C88.5207 94.3477 87.0259 94.3477 85.4634 94.2148L82.0233 100.173C81.4795 101.115 80.5837 101.802 79.5329 102.084C78.4823 102.366 77.3626 102.218 76.4206 101.674L62.2122 93.4711C61.2702 92.9272 60.5828 92.0311 60.3012 90.9806C60.0195 89.9298 60.1669 88.8103 60.7111 87.8683L64.1558 81.9019C63.2827 80.6367 62.5144 79.3034 61.8543 77.9086H54.9609C52.6958 77.9086 50.8594 76.0722 50.8594 73.8071V57.4008C50.8594 55.1357 52.6958 53.2993 54.9609 53.2993H61.8543C62.5144 51.9045 63.2827 50.5714 64.1558 49.3063L60.7111 43.3398C60.1672 42.3979 60.0198 41.2781 60.3012 40.2276C60.5825 39.1768 61.27 38.281 62.2122 37.7371L76.4206 29.534C77.3628 28.9898 78.4818 28.843 79.5329 29.1241C80.5837 29.4057 81.4795 30.0932 82.0233 31.0352L85.4623 36.9917C87.0146 36.8594 88.5325 36.8594 90.0845 36.9917L93.5236 31.0352C94.0674 30.0932 94.9632 29.4057 96.014 29.1241C97.0648 28.8433 98.1846 28.9901 99.1263 29.534L113.335 37.7371C114.277 38.281 114.964 39.177 115.246 40.2276C115.527 41.2781 115.38 42.3979 114.836 43.3398L111.391 49.3063C112.264 50.5712 113.032 51.9047 113.692 53.2993H120.586C122.851 53.2993 124.688 55.1357 124.688 57.4008V73.8071Z" fill="#818CEB"/>
<path d="M87.7734 69.7055C90.0387 69.7055 91.875 67.8692 91.875 65.604C91.875 63.3387 90.0387 61.5024 87.7734 61.5024C85.5082 61.5024 83.6719 63.3387 83.6719 65.604C83.6719 67.8692 85.5082 69.7055 87.7734 69.7055Z" fill="#818CEB"/>
</svg>
