<svg width="35" height="35" viewBox="0 0 35 35" fill="none" xmlns="http://www.w3.org/2000/svg">
<g clip-path="url(#clip0)">
<path d="M20.7066 17.5287L34.3349 3.9C35.2218 3.0135 35.2218 1.58017 34.3349 0.693677C33.4484 -0.192814 32.015 -0.192814 31.1285 0.693677L17.4998 14.3224L3.8715 0.693677C2.98459 -0.192814 1.55167 -0.192814 0.665181 0.693677C-0.221727 1.58017 -0.221727 3.0135 0.665181 3.9L14.2935 17.5287L0.665181 31.1574C-0.221727 32.0439 -0.221727 33.4773 0.665181 34.3638C1.10697 34.806 1.68786 35.0281 2.26834 35.0281C2.84882 35.0281 3.42929 34.806 3.8715 34.3638L17.4998 20.735L31.1285 34.3638C31.5708 34.806 32.1512 35.0281 32.7317 35.0281C33.3122 35.0281 33.8927 34.806 34.3349 34.3638C35.2218 33.4773 35.2218 32.0439 34.3349 31.1574L20.7066 17.5287Z" fill="black"/>
</g>
<defs>
<clipPath id="clip0">
<rect width="35" height="35" fill="white"/>
</clipPath>
</defs>
</svg>
