<svg width="199" height="55" viewBox="0 0 199 55" fill="none" xmlns="http://www.w3.org/2000/svg">
<path d="M53.9043 31V9.67188H61.375C63.9629 9.67188 65.9258 10.1699 67.2637 11.166C68.6016 12.1523 69.2705 13.6025 69.2705 15.5166C69.2705 16.5615 69.002 17.4844 68.4648 18.2852C67.9277 19.0762 67.1807 19.6572 66.2236 20.0283C67.3174 20.3018 68.1768 20.8535 68.8018 21.6836C69.4365 22.5137 69.7539 23.5293 69.7539 24.7305C69.7539 26.7812 69.0996 28.334 67.791 29.3887C66.4824 30.4434 64.6172 30.9805 62.1953 31H53.9043ZM58.2988 21.7129V27.4697H62.0635C63.0986 27.4697 63.9043 27.2256 64.4805 26.7373C65.0664 26.2393 65.3594 25.5557 65.3594 24.6865C65.3594 22.7334 64.3486 21.7422 62.3271 21.7129H58.2988ZM58.2988 18.6074H61.5508C63.7676 18.5684 64.876 17.6846 64.876 15.9561C64.876 14.9893 64.5928 14.2959 64.0264 13.876C63.4697 13.4463 62.5859 13.2314 61.375 13.2314H58.2988V18.6074ZM79.3539 31H75.1059V15.1504H79.3539V31ZM74.8568 11.0488C74.8568 10.4141 75.0668 9.8916 75.4867 9.48145C75.9164 9.07129 76.4975 8.86621 77.2299 8.86621C77.9525 8.86621 78.5287 9.07129 78.9584 9.48145C79.3881 9.8916 79.6029 10.4141 79.6029 11.0488C79.6029 11.6934 79.3832 12.2207 78.9438 12.6309C78.5141 13.041 77.9428 13.2461 77.2299 13.2461C76.517 13.2461 75.9408 13.041 75.5014 12.6309C75.0717 12.2207 74.8568 11.6934 74.8568 11.0488ZM84.2957 22.9287C84.2957 21.3564 84.5984 19.9551 85.2039 18.7246C85.8094 17.4941 86.6785 16.542 87.8113 15.8682C88.9539 15.1943 90.2771 14.8574 91.7811 14.8574C93.9197 14.8574 95.6629 15.5117 97.0105 16.8203C98.368 18.1289 99.1248 19.9062 99.2811 22.1523L99.3104 23.2363C99.3104 25.668 98.6316 27.6211 97.2742 29.0957C95.9168 30.5605 94.0955 31.293 91.8104 31.293C89.5252 31.293 87.699 30.5605 86.3318 29.0957C84.9744 27.6309 84.2957 25.6387 84.2957 23.1191V22.9287ZM88.5291 23.2363C88.5291 24.7402 88.8123 25.8926 89.3787 26.6934C89.9451 27.4844 90.7557 27.8799 91.8104 27.8799C92.8357 27.8799 93.6365 27.4893 94.2127 26.708C94.7889 25.917 95.077 24.6572 95.077 22.9287C95.077 21.4541 94.7889 20.3115 94.2127 19.501C93.6365 18.6904 92.826 18.2852 91.7811 18.2852C90.7459 18.2852 89.9451 18.6904 89.3787 19.501C88.8123 20.3018 88.5291 21.5469 88.5291 23.2363ZM108.969 31H104.574V9.67188H108.969V31ZM118.774 15.1504L118.906 16.9814C120.039 15.5654 121.557 14.8574 123.462 14.8574C125.141 14.8574 126.391 15.3506 127.212 16.3369C128.032 17.3232 128.452 18.7979 128.471 20.7607V31H124.238V20.8633C124.238 19.9648 124.043 19.3154 123.652 18.915C123.261 18.5049 122.612 18.2998 121.704 18.2998C120.512 18.2998 119.619 18.8076 119.023 19.8232V31H114.79V15.1504H118.774ZM138.862 11.2539V15.1504H141.572V18.2559H138.862V26.166C138.862 26.752 138.975 27.1719 139.199 27.4258C139.424 27.6797 139.854 27.8066 140.488 27.8066C140.957 27.8066 141.372 27.7725 141.733 27.7041V30.9121C140.903 31.166 140.049 31.293 139.17 31.293C136.201 31.293 134.688 29.7939 134.629 26.7959V18.2559H132.314V15.1504H134.629V11.2539H138.862ZM153.326 31.293C151.001 31.293 149.107 30.5801 147.642 29.1543C146.187 27.7285 145.459 25.8291 145.459 23.4561V23.0459C145.459 21.4541 145.767 20.0332 146.382 18.7832C146.997 17.5234 147.867 16.5566 148.99 15.8828C150.122 15.1992 151.412 14.8574 152.857 14.8574C155.025 14.8574 156.729 15.541 157.969 16.9082C159.219 18.2754 159.844 20.2139 159.844 22.7236V24.4521H149.751C149.888 25.4873 150.298 26.3174 150.982 26.9424C151.675 27.5674 152.549 27.8799 153.604 27.8799C155.235 27.8799 156.509 27.2891 157.427 26.1074L159.507 28.4365C158.872 29.335 158.013 30.0381 156.929 30.5459C155.845 31.0439 154.644 31.293 153.326 31.293ZM152.842 18.2852C152.002 18.2852 151.319 18.5684 150.791 19.1348C150.274 19.7012 149.942 20.5117 149.795 21.5664H155.684V21.2295C155.664 20.292 155.411 19.5693 154.922 19.0615C154.434 18.5439 153.741 18.2852 152.842 18.2852ZM170.953 27.8799C171.734 27.8799 172.369 27.665 172.857 27.2354C173.346 26.8057 173.599 26.2344 173.619 25.5215H177.589C177.579 26.5957 177.286 27.582 176.71 28.4805C176.134 29.3691 175.343 30.0625 174.337 30.5605C173.341 31.0488 172.237 31.293 171.026 31.293C168.761 31.293 166.973 30.5752 165.665 29.1396C164.356 27.6943 163.702 25.7021 163.702 23.1631V22.8848C163.702 20.4434 164.351 18.4951 165.65 17.04C166.949 15.585 168.731 14.8574 170.997 14.8574C172.979 14.8574 174.566 15.4238 175.758 16.5566C176.959 17.6797 177.569 19.1787 177.589 21.0537H173.619C173.599 20.2334 173.346 19.5693 172.857 19.0615C172.369 18.5439 171.724 18.2852 170.924 18.2852C169.937 18.2852 169.19 18.6465 168.682 19.3691C168.184 20.082 167.935 21.2441 167.935 22.8555V23.2949C167.935 24.9258 168.184 26.0977 168.682 26.8105C169.18 27.5234 169.937 27.8799 170.953 27.8799ZM186.237 16.8789C187.36 15.5312 188.771 14.8574 190.47 14.8574C193.907 14.8574 195.651 16.8545 195.699 20.8486V31H191.466V20.9658C191.466 20.0576 191.271 19.3887 190.88 18.959C190.489 18.5195 189.84 18.2998 188.932 18.2998C187.692 18.2998 186.793 18.7783 186.237 19.7354V31H182.003V8.5H186.237V16.8789Z" fill="black"/>
<path d="M0 10C0 4.47717 4.47715 0 10 0H32C37.5228 0 42 4.47715 42 10V31.7721C42 37.295 37.5228 41.7722 32 41.7722H23.476C21.5588 41.7722 19.8356 42.9421 19.1284 44.7242C17.6036 48.5659 12.2103 48.687 10.5148 44.9175L10.3783 44.6139C9.60034 42.8845 7.88032 41.7722 5.98395 41.7722H5.52621C2.47417 41.7722 0 39.298 0 36.2459V10Z" fill="white"/>
<path d="M10.4824 31V9.67188H17.4551C19.7695 9.67188 21.5078 10.1504 22.6699 11.1074C23.8418 12.0645 24.4277 13.4805 24.4277 15.3555C24.4277 16.3516 24.1445 17.2354 23.5781 18.0068C23.0117 18.7686 22.2402 19.3594 21.2637 19.7793C22.416 20.1016 23.3242 20.7168 23.9883 21.625C24.6621 22.5234 24.999 23.5977 24.999 24.8477C24.999 26.7617 24.3789 28.2656 23.1387 29.3594C21.8984 30.4531 20.1455 31 17.8799 31H10.4824ZM13.2949 21.0244V28.7002H17.9385C19.2471 28.7002 20.2773 28.3633 21.0293 27.6895C21.791 27.0059 22.1719 26.0684 22.1719 24.877C22.1719 22.3086 20.7754 21.0244 17.9824 21.0244H13.2949ZM13.2949 18.7686H17.543C18.7734 18.7686 19.7549 18.4609 20.4873 17.8457C21.2295 17.2305 21.6006 16.3955 21.6006 15.3408C21.6006 14.1689 21.2588 13.3193 20.5752 12.792C19.8916 12.2549 18.8516 11.9863 17.4551 11.9863H13.2949V18.7686ZM31.6934 31H28.9834V15.1504H31.6934V31ZM28.7637 10.9463C28.7637 10.5068 28.8955 10.1357 29.1592 9.83301C29.4326 9.53027 29.833 9.37891 30.3604 9.37891C30.8877 9.37891 31.2881 9.53027 31.5615 9.83301C31.835 10.1357 31.9717 10.5068 31.9717 10.9463C31.9717 11.3857 31.835 11.752 31.5615 12.0449C31.2881 12.3379 30.8877 12.4844 30.3604 12.4844C29.833 12.4844 29.4326 12.3379 29.1592 12.0449C28.8955 11.752 28.7637 11.3857 28.7637 10.9463Z" fill="black"/>
</svg>
