<svg width="26" height="25" viewBox="0 0 26 25" fill="none" xmlns="http://www.w3.org/2000/svg">
<path d="M24.4816 18.3475L20.9658 14.8587C19.7101 13.6126 17.5755 14.1111 17.0732 15.7309C16.6965 16.8523 15.4408 17.4753 14.3107 17.2261C11.7994 16.6031 8.40909 13.3634 7.78126 10.7468C7.40456 9.62537 8.15796 8.37936 9.28806 8.00561C10.9204 7.5072 11.4227 5.38899 10.167 4.14298L6.65116 0.654155C5.64662 -0.218052 4.13982 -0.218052 3.26085 0.654155L0.875084 3.02157C-1.51069 5.51359 1.12622 12.1174 7.02786 17.9737C12.9295 23.8299 19.5845 26.5712 22.0959 24.0791L24.4816 21.7117C25.3607 20.7149 25.3607 19.2197 24.4816 18.3475Z" fill="#313131"/>
</svg>
